<?xml version="1.0" encoding="UTF-8"?>
<svg version="1.1" xmlns="http://www.w3.org/2000/svg" width="512" height="512">
<path d="M0 0 C1.17975655 -0.01029488 1.17975655 -0.01029488 2.38334656 -0.02079773 C4.95895932 -0.03895842 7.53395668 -0.0352438 10.10961914 -0.02954102 C11.91508683 -0.03410793 13.72055278 -0.03941502 15.52601624 -0.04542542 C19.30094487 -0.05433542 23.0756617 -0.05195747 26.85058594 -0.04199219 C31.67005807 -0.03050443 36.48879727 -0.05072172 41.30817318 -0.07990932 C45.03415003 -0.09832148 48.75995286 -0.09796891 52.48596382 -0.0922718 C54.26204011 -0.09211921 56.03812865 -0.09811225 57.8141613 -0.11056328 C75.47891662 -0.21697282 75.47891662 -0.21697282 82.70727539 4.40405273 C83.50520508 4.86166992 84.30313477 5.31928711 85.12524414 5.79077148 C95.13529248 13.14915139 98.73257231 23.89154605 102.91821289 35.16577148 C106.21372698 43.78238636 109.73484812 52.1160355 117.70727539 57.34155273 C118.91383789 58.15946289 118.91383789 58.15946289 120.14477539 58.99389648 C125.75685615 62.0822519 131.07742359 62.7567117 137.33227539 63.27905273 C152.77563407 64.82745924 165.62901289 70.15204734 175.70727539 82.40405273 C182.82368443 92.34017102 185.1651262 101.9011127 185.09495544 114.00387573 C185.10303375 115.6945826 185.10303375 115.6945826 185.11127526 117.41944516 C185.12551716 121.17468118 185.11846018 124.92956283 185.11132812 128.68481445 C185.11703366 131.38600774 185.12389864 134.08717608 185.13212585 136.7883606 C185.14927528 143.35101193 185.15016188 149.91356735 185.14491295 156.47623526 C185.14086269 161.81343229 185.14232495 167.15060109 185.14766121 172.48779678 C185.14840963 173.24897691 185.14915805 174.01015704 185.14992915 174.79440323 C185.15146072 176.34101112 185.15299907 177.88761901 185.15454412 179.43422689 C185.16825529 193.92075501 185.16284129 208.40722905 185.15135891 222.89375593 C185.14142872 236.12851338 185.15436592 249.36313099 185.1782931 262.59786688 C185.2027126 276.20812529 185.21228493 289.81831865 185.20564038 303.42859852 C185.20215438 311.06139705 185.20433908 318.69408808 185.2218914 326.32686996 C185.23664914 332.82465238 185.23720246 339.3222516 185.21982049 345.82003056 C185.21133696 349.13106203 185.21128279 352.44149967 185.22447205 355.75255585 C185.23771229 359.35209673 185.22610609 362.95075871 185.20848083 366.55026245 C185.21808584 367.58238889 185.22769085 368.61451532 185.23758692 369.67791831 C185.09930618 383.47377904 179.65655274 394.17142951 170.39477539 404.15405273 C158.24875594 415.64939257 145.01038307 416.84988344 129.08227539 416.59155273 C123.67852539 416.52967773 118.27477539 416.46780273 112.70727539 416.40405273 C112.70727539 432.24405273 112.70727539 448.08405273 112.70727539 464.40405273 C102.14727539 464.40405273 91.58727539 464.40405273 80.70727539 464.40405273 C80.70727539 448.56405273 80.70727539 432.72405273 80.70727539 416.40405273 C70.14727539 416.40405273 59.58727539 416.40405273 48.70727539 416.40405273 C48.70727539 432.24405273 48.70727539 448.08405273 48.70727539 464.40405273 C38.14727539 464.40405273 27.58727539 464.40405273 16.70727539 464.40405273 C16.70727539 448.56405273 16.70727539 432.72405273 16.70727539 416.40405273 C6.14727539 416.40405273 -4.41272461 416.40405273 -15.29272461 416.40405273 C-15.29272461 432.24405273 -15.29272461 448.08405273 -15.29272461 464.40405273 C-25.85272461 464.40405273 -36.41272461 464.40405273 -47.29272461 464.40405273 C-47.29272461 448.56405273 -47.29272461 432.72405273 -47.29272461 416.40405273 C-57.94207835 416.56124812 -57.94207835 416.56124812 -68.59057617 416.7644043 C-84.12561766 416.96292827 -95.52518144 412.77741336 -107.04272461 402.09155273 C-116.61687562 391.97546865 -119.75936679 380.42329172 -119.68040466 366.80422974 C-119.6857902 365.67709183 -119.69117574 364.54995392 -119.69672447 363.38866031 C-119.71096637 359.63342429 -119.7039094 355.87854264 -119.69677734 352.12329102 C-119.70248288 349.42209773 -119.70934786 346.72092938 -119.71757507 344.01974487 C-119.7347245 337.45709354 -119.7356111 330.89453812 -119.73036217 324.33187021 C-119.72631191 318.99467318 -119.72777417 313.65750438 -119.73311043 308.32030869 C-119.73385885 307.55912856 -119.73460727 306.79794843 -119.73537837 306.01370224 C-119.73690994 304.46709435 -119.73844828 302.92048646 -119.73999334 301.37387858 C-119.75370451 286.88735046 -119.74829051 272.40087642 -119.73680813 257.91434954 C-119.72687794 244.67959209 -119.73981514 231.44497448 -119.76374232 218.21023859 C-119.78816182 204.59998018 -119.79773415 190.98978682 -119.79108959 177.37950695 C-119.7876036 169.74670842 -119.7897883 162.11401739 -119.80734062 154.4812355 C-119.82209836 147.98345309 -119.82265168 141.48585387 -119.80526971 134.98807491 C-119.79678618 131.67704344 -119.79673201 128.3666058 -119.80992126 125.05554962 C-119.82316151 121.45600874 -119.81155531 117.85734675 -119.79393005 114.25784302 C-119.80353506 113.22571658 -119.81314007 112.19359015 -119.82303613 111.13018715 C-119.6847554 97.33432643 -114.24200195 86.63667596 -104.98022461 76.65405273 C-95.48248337 67.66511906 -84.88119022 64.67214262 -72.23022461 63.46655273 C-65.61598804 62.82337059 -60.02448317 62.0027868 -54.29272461 58.40405273 C-53.60049805 57.99413086 -52.90827148 57.58420898 -52.19506836 57.16186523 C-41.79135313 50.27791161 -38.25172388 37.7771018 -34.16967773 26.59350586 C-30.23140076 16.25789936 -24.77412635 7.39301457 -14.48636532 2.55448818 C-9.54088719 0.57943935 -5.29989991 -0.03295985 0 0 Z M-3.29272461 38.46655273 C-6.71988281 43.50019134 -6.95041121 47.38297825 -6.29272461 53.40405273 C-3.94479803 58.28051563 -1.00511607 60.80742887 3.70727539 63.40405273 C7.02133738 64.22983819 10.12988392 64.53661114 13.53833008 64.56518555 C14.46989929 64.57479309 15.40146851 64.58440063 16.36126709 64.59429932 C17.35716858 64.59854919 18.35307007 64.60279907 19.37915039 64.60717773 C20.93463593 64.61572784 20.93463593 64.61572784 22.52154541 64.62445068 C24.71365342 64.63388327 26.90577549 64.64042773 29.09790039 64.64428711 C32.43148894 64.65397777 35.76445677 64.68501217 39.09790039 64.71655273 C41.23331342 64.72308501 43.36873083 64.7283346 45.50415039 64.73217773 C46.49195496 64.74452454 47.47975952 64.75687134 48.49749756 64.76959229 C54.96651211 64.74903032 62.26600856 64.48064434 67.33148193 59.95196533 C71.38660911 55.20530233 72.06326853 52.00785671 71.98461914 45.94311523 C71.57351095 42.17944871 70.22441179 40.18615086 67.70727539 37.40405273 C62.55092499 33.34479816 58.31825493 32.29692614 51.8762207 32.24291992 C50.94465149 32.23331238 50.01308228 32.22370483 49.05328369 32.21380615 C48.0573822 32.20955627 47.06148071 32.2053064 46.03540039 32.20092773 C44.99841003 32.19522766 43.96141968 32.18952759 42.89300537 32.18365479 C40.70089737 32.1742222 38.50877529 32.16767773 36.31665039 32.16381836 C32.98306184 32.15412769 29.65009401 32.1230933 26.31665039 32.09155273 C24.18123736 32.08502046 22.04581995 32.07977087 19.91040039 32.07592773 C18.92259583 32.06358093 17.93479126 32.05123413 16.91705322 32.03851318 C9.5373959 32.06196965 1.7865748 32.52106163 -3.29272461 38.46655273 Z " fill="#D65246" transform="translate(223.292724609375,23.595947265625)"/>
<path d="M0 0 C1.17975655 -0.01029488 1.17975655 -0.01029488 2.38334656 -0.02079773 C4.95895932 -0.03895842 7.53395668 -0.0352438 10.10961914 -0.02954102 C11.91508683 -0.03410793 13.72055278 -0.03941502 15.52601624 -0.04542542 C19.30094487 -0.05433542 23.0756617 -0.05195747 26.85058594 -0.04199219 C31.67005807 -0.03050443 36.48879727 -0.05072172 41.30817318 -0.07990932 C45.03415003 -0.09832148 48.75995286 -0.09796891 52.48596382 -0.0922718 C54.26204011 -0.09211921 56.03812865 -0.09811225 57.8141613 -0.11056328 C75.47891662 -0.21697282 75.47891662 -0.21697282 82.70727539 4.40405273 C83.50520508 4.86166992 84.30313477 5.31928711 85.12524414 5.79077148 C95.13529248 13.14915139 98.73257231 23.89154605 102.91821289 35.16577148 C106.21372698 43.78238636 109.73484812 52.1160355 117.70727539 57.34155273 C118.91383789 58.15946289 118.91383789 58.15946289 120.14477539 58.99389648 C125.75685615 62.0822519 131.07742359 62.7567117 137.33227539 63.27905273 C152.77563407 64.82745924 165.62901289 70.15204734 175.70727539 82.40405273 C182.82368443 92.34017102 185.1651262 101.9011127 185.09495544 114.00387573 C185.10303375 115.6945826 185.10303375 115.6945826 185.11127526 117.41944516 C185.12551716 121.17468118 185.11846018 124.92956283 185.11132812 128.68481445 C185.11703366 131.38600774 185.12389864 134.08717608 185.13212585 136.7883606 C185.14927528 143.35101193 185.15016188 149.91356735 185.14491295 156.47623526 C185.14086269 161.81343229 185.14232495 167.15060109 185.14766121 172.48779678 C185.14840963 173.24897691 185.14915805 174.01015704 185.14992915 174.79440323 C185.15146072 176.34101112 185.15299907 177.88761901 185.15454412 179.43422689 C185.16825529 193.92075501 185.16284129 208.40722905 185.15135891 222.89375593 C185.14142872 236.12851338 185.15436592 249.36313099 185.1782931 262.59786688 C185.2027126 276.20812529 185.21228493 289.81831865 185.20564038 303.42859852 C185.20215438 311.06139705 185.20433908 318.69408808 185.2218914 326.32686996 C185.23664914 332.82465238 185.23720246 339.3222516 185.21982049 345.82003056 C185.21133696 349.13106203 185.21128279 352.44149967 185.22447205 355.75255585 C185.23771229 359.35209673 185.22610609 362.95075871 185.20848083 366.55026245 C185.21808584 367.58238889 185.22769085 368.61451532 185.23758692 369.67791831 C185.09930618 383.47377904 179.65655274 394.17142951 170.39477539 404.15405273 C158.25628508 415.64226678 144.99924172 416.85512258 129.08227539 416.59155273 C127.48984017 416.5764747 125.89739109 416.56279183 124.30493164 416.55053711 C120.43841715 416.5203614 116.57386201 416.46160391 112.70727539 416.40405273 C112.70727539 405.84405273 112.70727539 395.28405273 112.70727539 384.40405273 C122.20727539 384.09155273 122.20727539 384.09155273 125.15063477 384.01611328 C133.17834613 383.68053666 140.08435256 381.95887637 146.04519701 376.26125044 C151.57791358 370.07902184 152.29038061 362.80741943 152.21520996 354.84666443 C152.22144992 353.81964749 152.22768989 352.79263055 152.23411894 351.73449188 C152.25000311 348.31217777 152.23746218 344.89058042 152.22485352 341.46826172 C152.2302766 339.00703518 152.23740031 336.54581189 152.24609375 334.08459473 C152.26241728 328.10528075 152.26005942 322.1262454 152.24844319 316.14694243 C152.23939218 311.28593888 152.23819205 306.42499158 152.24253845 301.56398201 C152.24345785 300.52435229 152.24345785 300.52435229 152.24439582 299.46371995 C152.24567478 298.05553259 152.24697164 296.64734525 152.24828619 295.23915792 C152.25967858 282.0503565 152.24659895 268.86166649 152.22508472 255.67288334 C152.20721096 244.36585086 152.21032267 233.05898265 152.22875977 221.75195312 C152.2501834 208.6072744 152.25858423 195.46269317 152.24631071 182.31799942 C152.24503657 180.91543553 152.24377909 179.51287162 152.24253845 178.11030769 C152.24192135 177.4202966 152.24130425 176.73028551 152.24066845 176.01936499 C152.23722031 171.16588027 152.2430322 166.31245758 152.25245667 161.45898247 C152.26487 154.92290862 152.25598653 148.38709657 152.23287964 141.85103607 C152.22759353 139.45329618 152.2291046 137.05553015 152.2379303 134.65780067 C152.24887249 131.38300137 152.23513691 128.10919365 152.21520996 124.8344574 C152.22413285 123.88727118 152.23305573 122.94008497 152.24224901 121.96419615 C152.15839968 114.85246614 150.44924293 109.5900636 145.77758789 104.16186523 C144.8146582 103.35362305 144.8146582 103.35362305 143.83227539 102.52905273 C143.19547852 101.97475586 142.55868164 101.42045898 141.90258789 100.84936523 C136.69604351 97.42156911 131.40469319 97.11210662 125.33291626 97.1366272 C124.50447311 97.13209608 123.67602996 97.12756497 122.82248247 97.12289655 C120.054368 97.11026495 117.2864506 97.11187211 114.51831055 97.11352539 C112.53042854 97.10753941 110.54254887 97.10073371 108.55467224 97.09317017 C103.16002189 97.07551112 97.76543499 97.07081485 92.37075853 97.06953859 C88.99935656 97.06811651 85.62797069 97.06384584 82.25657272 97.05854416 C70.49208299 97.04004496 58.72763856 97.03187351 46.96313477 97.03344727 C36.00110405 97.03464898 25.03927013 97.01354033 14.07728922 96.98195994 C4.66140048 96.95580139 -4.75442396 96.94507978 -14.17034876 96.94635808 C-19.79213737 96.94686779 -25.41375102 96.94117938 -31.03550339 96.92000198 C-36.32315569 96.90062656 -41.610466 96.90049053 -46.89813042 96.91503525 C-48.83629926 96.91712522 -50.77448947 96.91241126 -52.71262169 96.90031433 C-55.36361425 96.88484252 -58.01343037 96.89418242 -60.66439819 96.90957642 C-61.42686525 96.89928929 -62.1893323 96.88900216 -62.97490442 96.87840331 C-69.4847999 96.9616378 -74.6297869 99.07050279 -79.53491211 103.36889648 C-80.07374023 104.01987305 -80.61256836 104.67084961 -81.16772461 105.34155273 C-81.72202148 105.98995117 -82.27631836 106.63834961 -82.84741211 107.30639648 C-86.67237306 112.85775872 -86.58129365 117.94793894 -86.56015015 124.47369385 C-86.56468126 125.49658752 -86.56921237 126.5194812 -86.57388079 127.57337165 C-86.58655472 131.00558453 -86.58490247 134.43763933 -86.58325195 137.86987305 C-86.58923537 140.32888493 -86.59604048 142.78789494 -86.60360718 145.24690247 C-86.61945656 151.23637748 -86.62571646 157.2257902 -86.62683193 163.21528038 C-86.62778283 168.08541793 -86.63189522 172.95554252 -86.63823318 177.82567596 C-86.65584488 191.64027047 -86.66507232 205.45483392 -86.66357224 219.26943973 C-86.66345237 220.38625627 -86.66345237 220.38625627 -86.66333008 221.52563477 C-86.66324832 222.27109077 -86.66316656 223.01654678 -86.66308232 223.78459236 C-86.66226972 235.86095272 -86.68140077 247.93718826 -86.70960681 260.01351252 C-86.73835506 272.42012931 -86.752146 284.82668527 -86.75041926 297.23333621 C-86.74975596 304.19598839 -86.75522148 311.15850976 -86.77677536 318.1211319 C-86.79692207 324.67108349 -86.79629359 331.22080635 -86.7817421 337.77078819 C-86.77965073 340.17295167 -86.78437433 342.57513234 -86.79646301 344.97726631 C-86.81191446 348.26066073 -86.80260695 351.54310292 -86.78720093 354.82647705 C-86.79748805 355.7734789 -86.80777518 356.72048075 -86.81837404 357.69617963 C-86.74311981 364.97130906 -85.07105597 371.0954633 -80.32788086 376.74389648 C-79.35141602 377.53473633 -79.35141602 377.53473633 -78.35522461 378.34155273 C-77.70682617 378.88682617 -77.05842773 379.43209961 -76.39038086 379.99389648 C-72.40084043 382.67587804 -68.76593091 383.6506069 -63.99194336 383.81811523 C-63.11111084 383.85372559 -62.23027832 383.88933594 -61.32275391 383.92602539 C-59.6682019 383.97702393 -59.6682019 383.97702393 -57.98022461 384.02905273 C-54.45334961 384.15280273 -50.92647461 384.27655273 -47.29272461 384.40405273 C-47.29272461 394.96405273 -47.29272461 405.52405273 -47.29272461 416.40405273 C-51.91616224 416.49672743 -56.53627971 416.57609332 -61.15991211 416.6237793 C-62.72708147 416.64369006 -64.29417858 416.67082909 -65.86108398 416.70581055 C-82.46918332 417.06685618 -94.57805161 413.65615088 -107.04272461 402.09155273 C-116.61687562 391.97546865 -119.75936679 380.42329172 -119.68040466 366.80422974 C-119.6857902 365.67709183 -119.69117574 364.54995392 -119.69672447 363.38866031 C-119.71096637 359.63342429 -119.7039094 355.87854264 -119.69677734 352.12329102 C-119.70248288 349.42209773 -119.70934786 346.72092938 -119.71757507 344.01974487 C-119.7347245 337.45709354 -119.7356111 330.89453812 -119.73036217 324.33187021 C-119.72631191 318.99467318 -119.72777417 313.65750438 -119.73311043 308.32030869 C-119.73385885 307.55912856 -119.73460727 306.79794843 -119.73537837 306.01370224 C-119.73690994 304.46709435 -119.73844828 302.92048646 -119.73999334 301.37387858 C-119.75370451 286.88735046 -119.74829051 272.40087642 -119.73680813 257.91434954 C-119.72687794 244.67959209 -119.73981514 231.44497448 -119.76374232 218.21023859 C-119.78816182 204.59998018 -119.79773415 190.98978682 -119.79108959 177.37950695 C-119.7876036 169.74670842 -119.7897883 162.11401739 -119.80734062 154.4812355 C-119.82209836 147.98345309 -119.82265168 141.48585387 -119.80526971 134.98807491 C-119.79678618 131.67704344 -119.79673201 128.3666058 -119.80992126 125.05554962 C-119.82316151 121.45600874 -119.81155531 117.85734675 -119.79393005 114.25784302 C-119.80353506 113.22571658 -119.81314007 112.19359015 -119.82303613 111.13018715 C-119.6847554 97.33432643 -114.24200195 86.63667596 -104.98022461 76.65405273 C-95.48248337 67.66511906 -84.88119022 64.67214262 -72.23022461 63.46655273 C-65.61598804 62.82337059 -60.02448317 62.0027868 -54.29272461 58.40405273 C-53.60049805 57.99413086 -52.90827148 57.58420898 -52.19506836 57.16186523 C-41.79135313 50.27791161 -38.25172388 37.7771018 -34.16967773 26.59350586 C-30.23140076 16.25789936 -24.77412635 7.39301457 -14.48636532 2.55448818 C-9.54088719 0.57943935 -5.29989991 -0.03295985 0 0 Z M-3.29272461 38.46655273 C-6.71988281 43.50019134 -6.95041121 47.38297825 -6.29272461 53.40405273 C-3.94479803 58.28051563 -1.00511607 60.80742887 3.70727539 63.40405273 C7.02133738 64.22983819 10.12988392 64.53661114 13.53833008 64.56518555 C14.46989929 64.57479309 15.40146851 64.58440063 16.36126709 64.59429932 C17.35716858 64.59854919 18.35307007 64.60279907 19.37915039 64.60717773 C20.93463593 64.61572784 20.93463593 64.61572784 22.52154541 64.62445068 C24.71365342 64.63388327 26.90577549 64.64042773 29.09790039 64.64428711 C32.43148894 64.65397777 35.76445677 64.68501217 39.09790039 64.71655273 C41.23331342 64.72308501 43.36873083 64.7283346 45.50415039 64.73217773 C46.49195496 64.74452454 47.47975952 64.75687134 48.49749756 64.76959229 C54.96651211 64.74903032 62.26600856 64.48064434 67.33148193 59.95196533 C71.38660911 55.20530233 72.06326853 52.00785671 71.98461914 45.94311523 C71.57351095 42.17944871 70.22441179 40.18615086 67.70727539 37.40405273 C62.55092499 33.34479816 58.31825493 32.29692614 51.8762207 32.24291992 C50.94465149 32.23331238 50.01308228 32.22370483 49.05328369 32.21380615 C48.0573822 32.20955627 47.06148071 32.2053064 46.03540039 32.20092773 C44.99841003 32.19522766 43.96141968 32.18952759 42.89300537 32.18365479 C40.70089737 32.1742222 38.50877529 32.16767773 36.31665039 32.16381836 C32.98306184 32.15412769 29.65009401 32.1230933 26.31665039 32.09155273 C24.18123736 32.08502046 22.04581995 32.07977087 19.91040039 32.07592773 C18.92259583 32.06358093 17.93479126 32.05123413 16.91705322 32.03851318 C9.5373959 32.06196965 1.7865748 32.52106163 -3.29272461 38.46655273 Z " fill="#DEDEDC" transform="translate(223.292724609375,23.595947265625)"/>
<path d="M0 0 C58.08 0 116.16 0 176 0 C176 52.8 176 105.6 176 160 C117.92 160 59.84 160 0 160 C0 107.2 0 54.4 0 0 Z " fill="#338DD7" transform="translate(168,184)"/>
<path d="M0 0 C3.94325408 1.31441803 4.61261075 3.01310017 6.87109375 6.46875 C7.41649559 7.30025574 7.41649559 7.30025574 7.97291565 8.14855957 C8.74252461 9.32626026 9.50804382 10.50664212 10.26977539 11.68945312 C11.41959206 13.4722339 12.58453464 15.24433525 13.75195312 17.015625 C21.59122468 29.01441095 26.18780944 38.44933441 25 53 C23.23982459 60.14773935 17.74374728 64.77308739 12 69 C6.31420988 71.96649919 -1.04038955 72.04421585 -7.20703125 70.41796875 C-13.98539807 67.49003515 -19.13148877 61.58131319 -22.5 55.125 C-26.01986489 33.12584445 -11.84767698 17.00848552 0 0 Z " fill="#2B78B7" transform="translate(215,225)"/>
<path d="M0 0 C10.56 0 21.12 0 32 0 C32 10.56 32 21.12 32 32 C21.44 32 10.88 32 0 32 C0 21.44 0 10.88 0 0 Z " fill="#DFDFDD" transform="translate(304,456)"/>
<path d="M0 0 C10.56 0 21.12 0 32 0 C32 10.56 32 21.12 32 32 C21.44 32 10.88 32 0 32 C0 21.44 0 10.88 0 0 Z " fill="#DFDFDD" transform="translate(240,456)"/>
<path d="M0 0 C10.56 0 21.12 0 32 0 C32 10.56 32 21.12 32 32 C21.44 32 10.88 32 0 32 C0 21.44 0 10.88 0 0 Z " fill="#DFDFDD" transform="translate(176,456)"/>
<path d="M0 0 C10.56 0 21.12 0 32 0 C32 10.56 32 21.12 32 32 C21.44 32 10.88 32 0 32 C0 21.44 0 10.88 0 0 Z " fill="#DFDFDD" transform="translate(272,408)"/>
<path d="M0 0 C10.56 0 21.12 0 32 0 C32 10.56 32 21.12 32 32 C21.44 32 10.88 32 0 32 C0 21.44 0 10.88 0 0 Z " fill="#DFDFDD" transform="translate(208,408)"/>
<path d="M0 0 C18.48 0 36.96 0 56 0 C56 5.28 56 10.56 56 16 C37.52 16 19.04 16 0 16 C0 10.72 0 5.44 0 0 Z " fill="#2B78B7" transform="translate(264,304)"/>
<path d="M0 0 C18.48 0 36.96 0 56 0 C56 5.28 56 10.56 56 16 C37.52 16 19.04 16 0 16 C0 10.72 0 5.44 0 0 Z " fill="#2B78B7" transform="translate(264,272)"/>
<path d="M0 0 C18.48 0 36.96 0 56 0 C56 5.28 56 10.56 56 16 C37.52 16 19.04 16 0 16 C0 10.72 0 5.44 0 0 Z " fill="#2B78B7" transform="translate(264,240)"/>
<path d="M0 0 C18.48 0 36.96 0 56 0 C56 5.28 56 10.56 56 16 C37.52 16 19.04 16 0 16 C0 10.72 0 5.44 0 0 Z " fill="#2B78B7" transform="translate(264,208)"/>
</svg>
